<?xml version="1.0" encoding="UTF-8" ?>
<!DOCTYPE svg PUBLIC "-//W3C//DTD SVG 1.1//EN" "http://www.w3.org/Graphics/SVG/1.1/DTD/svg11.dtd">
<svg width="200pt" height="86pt" viewBox="0 0 200 86" version="1.1" xmlns="http://www.w3.org/2000/svg">
<path fill="#ffffff" d=" M 0.00 0.00 L 200.00 0.00 L 200.00 86.00 L 0.00 86.00 L 0.00 0.00 Z" />
<path fill="#449e82" d=" M 106.85 74.93 C 107.52 73.99 108.20 73.06 108.89 72.14 C 110.07 74.42 110.93 77.17 113.26 78.56 C 115.96 79.98 118.87 80.94 121.67 82.14 C 119.07 82.23 116.42 82.80 113.85 82.22 C 111.82 81.15 110.83 78.91 109.39 77.23 C 109.33 79.15 109.29 81.09 109.23 83.02 C 108.38 80.34 107.58 77.64 106.85 74.93 Z" />
<path fill="#449e82" d=" M 53.01 73.92 C 54.01 74.54 55.00 75.17 56.00 75.79 C 59.37 75.03 62.75 73.50 66.26 74.34 C 63.44 77.81 59.01 79.06 55.44 81.54 C 55.89 80.82 56.79 79.37 57.24 78.65 C 56.27 78.96 54.33 79.59 53.36 79.90 C 53.21 77.91 53.10 75.92 53.01 73.92 Z" />
</svg>
